HIERARCHY
ROOT Hips
{
	OFFSET 0.000000 0.000000 0.000000
	CHANNELS 6 Xposition Yposition Zposition Xrotation Yrotation Zrotation
	JOINT LeftUpLeg_virtual
	{
		OFFSET 0.000000 0.000000 0.000000
		CHANNELS 3 Xrotation Yrotation Zrotation
		JOINT LeftUpLeg
		{
			OFFSET 11.394100 -6.187798 -0.413800
			CHANNELS 3 Xrotation Yrotation Zrotation
			JOINT LeftLeg
			{
				OFFSET 0.430247 -32.302673 3.732800
				CHANNELS 3 Xrotation Yrotation Zrotation
				JOINT LeftFoot
				{
					OFFSET -0.430247 -48.264931 -6.423300
					CHANNELS 3 Xrotation Yrotation Zrotation
					JOINT LeftToeBase
					{
						OFFSET 4.230900 -16.068199 23.438400
						CHANNELS 3 Xrotation Yrotation Zrotation
						JOINT LeftToe_End
						{
							OFFSET 4.510700 0.695400 19.974600
							CHANNELS 3 Xrotation Yrotation Zrotation
							End Site
							{
								OFFSET 0 0 0
							}
						}
					}
				}
			}
		}
	}
	JOINT RightUpLeg_virtual
	{
		OFFSET 0.000000 0.000000 0.000000
		CHANNELS 3 Xrotation Yrotation Zrotation
		JOINT RightUpLeg
		{
			OFFSET -11.333700 -6.187798 -0.413800
			CHANNELS 3 Xrotation Yrotation Zrotation
			JOINT RightLeg
			{
				OFFSET -0.430392 -32.302628 3.733000
				CHANNELS 3 Xrotation Yrotation Zrotation
				JOINT RightFoot
				{
					OFFSET 0.430392 -48.264973 -6.423500
					CHANNELS 3 Xrotation Yrotation Zrotation
					JOINT RightToeBase
					{
						OFFSET -4.230900 -16.068199 23.438400
						CHANNELS 3 Xrotation Yrotation Zrotation
						JOINT RightToe_End
						{
							OFFSET -4.510700 0.695400 19.974600
							CHANNELS 3 Xrotation Yrotation Zrotation
							End Site
							{
								OFFSET 0 0 0
							}
						}
					}
				}
			}
		}
	}
	JOINT Spine_virtual
	{
		OFFSET 0.000000 0.000000 0.000000
		CHANNELS 3 Xrotation Yrotation Zrotation
		JOINT Spine
		{
			OFFSET -0.002400 12.777504 0.315300
			CHANNELS 3 Xrotation Yrotation Zrotation
			JOINT Spine1
			{
				OFFSET -0.002067 5.816869 0.032633
				CHANNELS 3 Xrotation Yrotation Zrotation
				JOINT Spine1_split
				{
					OFFSET -0.002067 5.816869 0.032633
					CHANNELS 3 Xrotation Yrotation Zrotation
					JOINT Spine2
					{
						OFFSET -0.002067 5.816869 0.032633
						CHANNELS 3 Xrotation Yrotation Zrotation
						JOINT Neck_virtual
						{
							OFFSET 0.000000 0.000000 0.000000
							CHANNELS 3 Xrotation Yrotation Zrotation
							JOINT Neck
							{
								OFFSET -0.003700 21.199493 -0.826900
								CHANNELS 3 Xrotation Yrotation Zrotation
								JOINT Head
								{
									OFFSET 0.000000 20.442200 4.834800
									CHANNELS 3 Xrotation Yrotation Zrotation
									JOINT HeadTop_End
									{
										OFFSET 0.000000 34.668396 4.968400
										CHANNELS 3 Xrotation Yrotation Zrotation
										End Site
										{
											OFFSET 0 0 0
										}
									}
								}
							}
						}
						JOINT LeftShoulder_virtual
						{
							OFFSET 0.000000 0.000000 0.000000
							CHANNELS 3 Xrotation Yrotation Zrotation
							JOINT LeftShoulder
							{
								OFFSET 3.288150 8.794197 -1.372250
								CHANNELS 3 Xrotation Yrotation Zrotation
								JOINT LeftShoulder_split
								{
									OFFSET 3.288150 8.794197 -1.372250
									CHANNELS 3 Xrotation Yrotation Zrotation
									JOINT LeftArm
									{
										OFFSET 11.953299 -2.279007 -0.146200
										CHANNELS 3 Xrotation Yrotation Zrotation
										JOINT LeftForeArm
										{
											OFFSET 18.448900 0.000000 0.000000
											CHANNELS 3 Xrotation Yrotation Zrotation
											JOINT LeftHand
											{
												OFFSET 29.527798 0.000000 0.000000
												CHANNELS 3 Xrotation Yrotation Zrotation
												End Site
												{
													OFFSET 0 0 0
												}
											}
										}
									}
								}
							}
						}
						JOINT RightShoulder_virtual
						{
							OFFSET 0.000000 0.000000 0.000000
							CHANNELS 3 Xrotation Yrotation Zrotation
							JOINT RightShoulder
							{
								OFFSET -3.249400 8.794197 -1.372250
								CHANNELS 3 Xrotation Yrotation Zrotation
								JOINT RightShoulder_split
								{
									OFFSET -3.249400 8.794197 -1.372250
									CHANNELS 3 Xrotation Yrotation Zrotation
									JOINT RightArm
									{
										OFFSET -11.953299 -2.279007 -0.146200
										CHANNELS 3 Xrotation Yrotation Zrotation
										JOINT RightForeArm
										{
											OFFSET -18.448900 0.000000 0.000000
											CHANNELS 3 Xrotation Yrotation Zrotation
											JOINT RightHand
											{
												OFFSET -29.527802 0.000000 0.000000
												CHANNELS 3 Xrotation Yrotation Zrotation
												End Site
												{
													OFFSET 0 0 0
												}
											}
										}
									}
								}
							}
						}
					}
				}
			}
		}
	}
}
MOTION
Frames: 4
Frame Time: 0.03333333
1.611048 88.159004 -9.106720 0.000000 0.000000 0.000000 19.702808 -31.208712 15.771805 -64.691693 16.090956 30.561989 35.187946 -13.770462 -0.232062 10.764397 -2.366278 -3.332465 14.934847 -2.462448 6.619218 0.000000 0.000000 0.000000 17.472657 -30.270019 15.095671 -35.539773 10.245177 -19.624156 33.644986 13.833694 -8.880446 -4.921727 -13.571372 34.991028 -10.280380 9.505388 -20.327939 0.000000 0.000000 0.000000 13.760097 -14.445281 8.241116 13.911337 -1.817002 6.198147 4.114578 5.515791 -8.666325 0.007870 0.387206 -0.044239 0.000000 0.000000 0.000000 -5.542386 7.175955 -6.405871 -75.874598 18.453416 23.020471 -106.616104 -19.166689 -36.561767 0.000000 0.000000 0.000000 -5.434239 5.004621 -7.678258 2.631130 12.569005 20.531941 -17.315255 10.546018 -12.555065 10.788792 18.975587 -58.128885 83.656403 -65.515748 74.021847 0.000000 0.000000 0.000000 -5.943496 5.106543 -5.369197 2.903903 3.310104 12.291086 18.561734 13.325806 24.617520 47.359050 -7.875636 23.932797 -101.922822 61.760176 105.398083 0.000000 0.000000 0.000000 
0.802217 87.972992 -8.265965 0.000000 0.000000 0.000000 20.376213 -31.557007 16.492544 -65.132390 16.740561 30.699429 34.660447 -13.794405 -0.215693 9.756632 -2.268173 -3.348157 14.408392 -2.544568 6.923522 0.000000 0.000000 0.000000 18.802727 -30.192059 15.929483 -34.480438 11.312216 -18.954736 32.806167 13.849778 -9.289427 -5.741623 -13.742538 36.029805 -10.929770 9.619830 -20.634737 0.000000 0.000000 0.000000 15.219366 -15.087833 9.979641 14.400349 -2.590136 6.185223 4.024132 4.516050 -8.319930 0.097847 0.128365 0.100011 0.000000 0.000000 0.000000 -5.499422 6.557772 -6.000008 -74.712557 20.493812 23.181976 -106.932847 -19.001433 -36.494961 0.000000 0.000000 0.000000 -5.094479 4.068041 -7.435529 2.881026 11.614246 20.394545 -15.098888 5.505030 -13.067679 12.703956 22.169197 -57.070933 70.156807 -62.936710 60.206594 0.000000 0.000000 0.000000 -5.836877 4.343944 -4.995413 3.279250 3.806079 14.024335 15.133239 8.949066 22.776832 44.688131 -10.231605 28.148618 -111.942334 60.205140 114.491517 0.000000 0.000000 0.000000 
-0.515452 87.517426 -7.567574 0.000000 0.000000 0.000000 20.632936 -30.948072 17.380998 -65.872059 17.258435 30.901582 34.211171 -14.513097 0.071067 9.377440 -2.295650 -4.686819 13.956789 -2.696991 7.245694 0.000000 0.000000 0.000000 19.634434 -29.007984 16.787043 -32.724355 11.332179 -18.637833 32.882781 13.699418 -9.757832 -9.704026 -15.121974 36.186629 -9.253958 10.129641 -22.494852 0.000000 0.000000 0.000000 16.527326 -15.533863 12.279018 16.105689 -3.762990 6.121437 4.521688 2.610978 -7.753836 0.151306 0.089500 0.312146 0.000000 0.000000 0.000000 -5.269191 5.146800 -5.551759 -71.216818 22.978276 23.340780 -107.778097 -17.724462 -35.314175 0.000000 0.000000 0.000000 -4.506239 2.326099 -7.231640 3.519095 9.230021 20.274643 -11.035478 -0.131610 -11.914779 14.495806 28.748574 -56.681165 59.743118 -59.545145 49.101069 0.000000 0.000000 0.000000 -4.976680 2.760090 -4.614168 3.739634 3.477920 16.347153 13.579331 3.202119 19.766668 38.715312 -10.284801 29.870278 -127.263281 54.730337 129.461304 0.000000 0.000000 0.000000 
-1.998714 86.799667 -6.970188 0.000000 0.000000 0.000000 20.448634 -29.548361 18.237763 -66.433077 17.972866 31.078474 33.795738 -15.340852 0.448194 9.623453 -2.133479 -6.413718 13.418855 -2.940962 7.670712 0.000000 0.000000 0.000000 19.481556 -27.449992 17.471079 -30.966046 10.275950 -18.978207 34.610973 13.444999 -10.174146 -15.106881 -17.102534 36.098243 -6.107889 10.918886 -25.534170 0.000000 0.000000 0.000000 17.719912 -15.820123 14.615345 19.059499 -5.212951 5.998618 5.782082 0.080855 -6.915657 0.037830 0.061520 0.457984 0.000000 0.000000 0.000000 -4.557784 3.101065 -5.070476 -65.930197 25.726365 23.496657 -108.942262 -15.812909 -33.584293 0.000000 0.000000 0.000000 -3.428095 -0.024442 -6.883416 4.665082 5.419943 20.310650 -6.431998 -3.128012 -10.226538 14.124805 37.003581 -55.597108 52.952093 -57.067378 41.423598 0.000000 0.000000 0.000000 -3.366250 0.597246 -4.048598 4.345707 3.071044 18.984734 12.257154 -2.478345 15.905373 31.481967 -7.557856 28.969851 -136.378592 48.432503 138.773475 0.000000 0.000000 0.000000 
